<mxfile host="app.diagrams.net" agent="Mozilla/5.0 (Windows NT 10.0; Win64; x64) AppleWebKit/537.36 (KHTML, like Gecko) Chrome/136.0.0.0 Safari/537.36" version="27.0.9">
  <diagram name="Page-1" id="gbsmE6_mIlmgnAvDdhPM">
    <mxGraphModel dx="1411" dy="979" grid="0" gridSize="10" guides="1" tooltips="1" connect="1" arrows="1" fold="1" page="0" pageScale="1" pageWidth="850" pageHeight="1100" math="0" shadow="0">
      <root>
        <mxCell id="0" />
        <mxCell id="1" parent="0" />
        <mxCell id="b1xzSJ63PG0eWYPtz2-o-1" value="Mahasiswa" style="shape=umlActor;verticalLabelPosition=bottom;verticalAlign=top;html=1;outlineConnect=0;" vertex="1" parent="1">
          <mxGeometry x="-39" y="-34" width="30" height="60" as="geometry" />
        </mxCell>
        <mxCell id="b1xzSJ63PG0eWYPtz2-o-2" value="Admin&lt;div&gt;(Tata Usaha)&lt;/div&gt;" style="shape=umlActor;verticalLabelPosition=bottom;verticalAlign=top;html=1;outlineConnect=0;" vertex="1" parent="1">
          <mxGeometry x="464" y="-34" width="30" height="60" as="geometry" />
        </mxCell>
        <mxCell id="b1xzSJ63PG0eWYPtz2-o-3" value="Dosen" style="shape=umlActor;verticalLabelPosition=bottom;verticalAlign=top;html=1;outlineConnect=0;" vertex="1" parent="1">
          <mxGeometry x="-39" y="177" width="30" height="60" as="geometry" />
        </mxCell>
        <mxCell id="b1xzSJ63PG0eWYPtz2-o-4" value="" style="swimlane;startSize=0;" vertex="1" parent="1">
          <mxGeometry x="21" y="-109" width="401" height="795" as="geometry" />
        </mxCell>
        <mxCell id="b1xzSJ63PG0eWYPtz2-o-5" value="&lt;font style=&quot;font-size: 6px;&quot;&gt;Kelola Dosen&lt;/font&gt;" style="ellipse;whiteSpace=wrap;html=1;verticalAlign=middle;align=center;" vertex="1" parent="b1xzSJ63PG0eWYPtz2-o-4">
          <mxGeometry x="183" y="77" width="70.5" height="40" as="geometry" />
        </mxCell>
        <mxCell id="b1xzSJ63PG0eWYPtz2-o-6" value="&lt;font style=&quot;font-size: 6px;&quot;&gt;Kelola Mahasiswa&lt;/font&gt;" style="ellipse;whiteSpace=wrap;html=1;verticalAlign=middle;align=center;" vertex="1" parent="b1xzSJ63PG0eWYPtz2-o-4">
          <mxGeometry x="181.75" y="240" width="70.5" height="40" as="geometry" />
        </mxCell>
        <mxCell id="b1xzSJ63PG0eWYPtz2-o-8" value="&lt;font style=&quot;font-size: 6px;&quot;&gt;Kelola Ruang Kelas&lt;/font&gt;" style="ellipse;whiteSpace=wrap;html=1;verticalAlign=middle;align=center;" vertex="1" parent="b1xzSJ63PG0eWYPtz2-o-4">
          <mxGeometry x="205" y="480" width="70" height="40" as="geometry" />
        </mxCell>
        <mxCell id="b1xzSJ63PG0eWYPtz2-o-9" value="&lt;font style=&quot;font-size: 6px;&quot;&gt;Kelola Jadwal&lt;/font&gt;&lt;div&gt;&lt;font style=&quot;font-size: 6px;&quot;&gt;Mata Kuliah&lt;/font&gt;&lt;/div&gt;" style="ellipse;whiteSpace=wrap;html=1;verticalAlign=middle;align=center;" vertex="1" parent="b1xzSJ63PG0eWYPtz2-o-4">
          <mxGeometry x="214" y="645" width="70" height="40" as="geometry" />
        </mxCell>
        <mxCell id="b1xzSJ63PG0eWYPtz2-o-10" value="&lt;font style=&quot;font-size: 6px;&quot;&gt;Kelola Jadwal&lt;/font&gt;&lt;div&gt;&lt;font style=&quot;font-size: 6px;&quot;&gt;Ruang Kelas&lt;/font&gt;&lt;/div&gt;" style="ellipse;whiteSpace=wrap;html=1;verticalAlign=middle;align=center;" vertex="1" parent="b1xzSJ63PG0eWYPtz2-o-4">
          <mxGeometry x="214" y="690" width="70" height="40" as="geometry" />
        </mxCell>
        <mxCell id="b1xzSJ63PG0eWYPtz2-o-11" value="&lt;font style=&quot;font-size: 6px;&quot;&gt;Kelola Peminjaman&lt;/font&gt;&lt;div&gt;&lt;font style=&quot;font-size: 6px;&quot;&gt;Ruang Kelas&lt;/font&gt;&lt;/div&gt;" style="ellipse;whiteSpace=wrap;html=1;verticalAlign=middle;align=center;" vertex="1" parent="b1xzSJ63PG0eWYPtz2-o-4">
          <mxGeometry x="214" y="740" width="70" height="40" as="geometry" />
        </mxCell>
        <mxCell id="b1xzSJ63PG0eWYPtz2-o-12" value="&lt;span style=&quot;font-size: 6px;&quot;&gt;Kelola Peran dan Izin&lt;/span&gt;" style="ellipse;whiteSpace=wrap;html=1;verticalAlign=middle;align=center;" vertex="1" parent="b1xzSJ63PG0eWYPtz2-o-4">
          <mxGeometry x="214" y="798" width="70" height="40" as="geometry" />
        </mxCell>
        <mxCell id="b1xzSJ63PG0eWYPtz2-o-13" value="&lt;span style=&quot;font-size: 6px;&quot;&gt;Melihat Dosen Keseluruhan&lt;/span&gt;" style="ellipse;whiteSpace=wrap;html=1;verticalAlign=middle;align=center;" vertex="1" parent="b1xzSJ63PG0eWYPtz2-o-4">
          <mxGeometry x="90" y="6" width="52" height="32" as="geometry" />
        </mxCell>
        <mxCell id="b1xzSJ63PG0eWYPtz2-o-14" value="&lt;span style=&quot;font-size: 6px;&quot;&gt;Melihat Dosen Perseorangan&lt;/span&gt;" style="ellipse;whiteSpace=wrap;html=1;verticalAlign=middle;align=center;" vertex="1" parent="b1xzSJ63PG0eWYPtz2-o-4">
          <mxGeometry x="69" y="38" width="54" height="35" as="geometry" />
        </mxCell>
        <mxCell id="b1xzSJ63PG0eWYPtz2-o-15" value="&lt;span style=&quot;font-size: 6px;&quot;&gt;Menambah&amp;nbsp;&lt;/span&gt;&lt;div&gt;&lt;span style=&quot;font-size: 6px;&quot;&gt;Dosen Baru&lt;/span&gt;&lt;/div&gt;" style="ellipse;whiteSpace=wrap;html=1;verticalAlign=middle;align=center;" vertex="1" parent="b1xzSJ63PG0eWYPtz2-o-4">
          <mxGeometry x="66" y="74" width="52" height="31" as="geometry" />
        </mxCell>
        <mxCell id="b1xzSJ63PG0eWYPtz2-o-16" value="&lt;span style=&quot;font-size: 6px;&quot;&gt;Edit Dosen&lt;/span&gt;" style="ellipse;whiteSpace=wrap;html=1;verticalAlign=middle;align=center;" vertex="1" parent="b1xzSJ63PG0eWYPtz2-o-4">
          <mxGeometry x="71" y="107" width="39" height="28" as="geometry" />
        </mxCell>
        <mxCell id="b1xzSJ63PG0eWYPtz2-o-17" value="&lt;span style=&quot;font-size: 6px;&quot;&gt;Hapus Dosen&lt;/span&gt;" style="ellipse;whiteSpace=wrap;html=1;verticalAlign=middle;align=center;" vertex="1" parent="b1xzSJ63PG0eWYPtz2-o-4">
          <mxGeometry x="78" y="138" width="44" height="23" as="geometry" />
        </mxCell>
        <mxCell id="b1xzSJ63PG0eWYPtz2-o-19" value="" style="endArrow=none;html=1;rounded=0;fontSize=12;startSize=8;endSize=8;curved=1;entryX=0;entryY=0.5;entryDx=0;entryDy=0;exitX=1;exitY=0.5;exitDx=0;exitDy=0;" edge="1" parent="b1xzSJ63PG0eWYPtz2-o-4" source="b1xzSJ63PG0eWYPtz2-o-13" target="b1xzSJ63PG0eWYPtz2-o-5">
          <mxGeometry width="50" height="50" relative="1" as="geometry">
            <mxPoint x="168" y="174" as="sourcePoint" />
            <mxPoint x="218" y="124" as="targetPoint" />
          </mxGeometry>
        </mxCell>
        <mxCell id="b1xzSJ63PG0eWYPtz2-o-20" value="" style="endArrow=none;html=1;rounded=0;fontSize=12;startSize=8;endSize=8;curved=1;exitX=1;exitY=0.5;exitDx=0;exitDy=0;" edge="1" parent="b1xzSJ63PG0eWYPtz2-o-4" source="b1xzSJ63PG0eWYPtz2-o-14">
          <mxGeometry width="50" height="50" relative="1" as="geometry">
            <mxPoint x="152" y="32" as="sourcePoint" />
            <mxPoint x="183" y="97" as="targetPoint" />
          </mxGeometry>
        </mxCell>
        <mxCell id="b1xzSJ63PG0eWYPtz2-o-21" style="edgeStyle=none;curved=1;rounded=0;orthogonalLoop=1;jettySize=auto;html=1;entryX=0;entryY=0.5;entryDx=0;entryDy=0;fontSize=12;startSize=8;endSize=8;" edge="1" parent="b1xzSJ63PG0eWYPtz2-o-4" source="b1xzSJ63PG0eWYPtz2-o-5" target="b1xzSJ63PG0eWYPtz2-o-5">
          <mxGeometry relative="1" as="geometry" />
        </mxCell>
        <mxCell id="b1xzSJ63PG0eWYPtz2-o-22" value="" style="endArrow=none;html=1;rounded=0;fontSize=12;startSize=8;endSize=8;curved=1;exitX=1;exitY=0.5;exitDx=0;exitDy=0;entryX=0;entryY=0.5;entryDx=0;entryDy=0;" edge="1" parent="b1xzSJ63PG0eWYPtz2-o-4" source="b1xzSJ63PG0eWYPtz2-o-15" target="b1xzSJ63PG0eWYPtz2-o-5">
          <mxGeometry width="50" height="50" relative="1" as="geometry">
            <mxPoint x="154" y="70" as="sourcePoint" />
            <mxPoint x="193" y="107" as="targetPoint" />
          </mxGeometry>
        </mxCell>
        <mxCell id="b1xzSJ63PG0eWYPtz2-o-23" value="" style="endArrow=none;html=1;rounded=0;fontSize=12;startSize=8;endSize=8;curved=1;exitX=1;exitY=0.5;exitDx=0;exitDy=0;entryX=0;entryY=0.5;entryDx=0;entryDy=0;" edge="1" parent="b1xzSJ63PG0eWYPtz2-o-4" source="b1xzSJ63PG0eWYPtz2-o-16" target="b1xzSJ63PG0eWYPtz2-o-5">
          <mxGeometry width="50" height="50" relative="1" as="geometry">
            <mxPoint x="154" y="107" as="sourcePoint" />
            <mxPoint x="193" y="107" as="targetPoint" />
          </mxGeometry>
        </mxCell>
        <mxCell id="b1xzSJ63PG0eWYPtz2-o-24" value="" style="endArrow=none;html=1;rounded=0;fontSize=12;startSize=8;endSize=8;curved=1;exitX=1;exitY=0.5;exitDx=0;exitDy=0;entryX=0;entryY=0.5;entryDx=0;entryDy=0;" edge="1" parent="b1xzSJ63PG0eWYPtz2-o-4" source="b1xzSJ63PG0eWYPtz2-o-17" target="b1xzSJ63PG0eWYPtz2-o-5">
          <mxGeometry width="50" height="50" relative="1" as="geometry">
            <mxPoint x="148" y="140" as="sourcePoint" />
            <mxPoint x="193" y="107" as="targetPoint" />
          </mxGeometry>
        </mxCell>
        <mxCell id="b1xzSJ63PG0eWYPtz2-o-25" value="&lt;span style=&quot;font-size: 6px;&quot;&gt;Melihat Mahasiswa Keseluruhan&lt;/span&gt;" style="ellipse;whiteSpace=wrap;html=1;verticalAlign=middle;align=center;" vertex="1" parent="b1xzSJ63PG0eWYPtz2-o-4">
          <mxGeometry x="84.75" y="164" width="60" height="32" as="geometry" />
        </mxCell>
        <mxCell id="b1xzSJ63PG0eWYPtz2-o-26" value="&lt;span style=&quot;font-size: 6px;&quot;&gt;Melihat Mahasiswa Perseorangan&lt;/span&gt;" style="ellipse;whiteSpace=wrap;html=1;verticalAlign=middle;align=center;" vertex="1" parent="b1xzSJ63PG0eWYPtz2-o-4">
          <mxGeometry x="67.75" y="198" width="60" height="35" as="geometry" />
        </mxCell>
        <mxCell id="b1xzSJ63PG0eWYPtz2-o-27" value="&lt;span style=&quot;font-size: 6px;&quot;&gt;Menambah&amp;nbsp;&lt;/span&gt;&lt;div&gt;&lt;span style=&quot;font-size: 6px;&quot;&gt;Mahasiswa Baru&lt;/span&gt;&lt;/div&gt;" style="ellipse;whiteSpace=wrap;html=1;verticalAlign=middle;align=center;" vertex="1" parent="b1xzSJ63PG0eWYPtz2-o-4">
          <mxGeometry x="67.75" y="236" width="59" height="34" as="geometry" />
        </mxCell>
        <mxCell id="b1xzSJ63PG0eWYPtz2-o-28" value="&lt;span style=&quot;font-size: 6px;&quot;&gt;Edit Mahasiswa&lt;/span&gt;" style="ellipse;whiteSpace=wrap;html=1;verticalAlign=middle;align=center;" vertex="1" parent="b1xzSJ63PG0eWYPtz2-o-4">
          <mxGeometry x="73" y="273" width="49.5" height="26" as="geometry" />
        </mxCell>
        <mxCell id="b1xzSJ63PG0eWYPtz2-o-29" value="&lt;span style=&quot;font-size: 6px;&quot;&gt;Hapus Mahasiswa&lt;/span&gt;" style="ellipse;whiteSpace=wrap;html=1;verticalAlign=middle;align=center;" vertex="1" parent="b1xzSJ63PG0eWYPtz2-o-4">
          <mxGeometry x="69.75" y="304" width="58" height="23" as="geometry" />
        </mxCell>
        <mxCell id="b1xzSJ63PG0eWYPtz2-o-30" value="" style="endArrow=none;html=1;rounded=0;fontSize=12;startSize=8;endSize=8;curved=1;entryX=1;entryY=0.5;entryDx=0;entryDy=0;exitX=0;exitY=0.5;exitDx=0;exitDy=0;" edge="1" parent="b1xzSJ63PG0eWYPtz2-o-4" source="b1xzSJ63PG0eWYPtz2-o-6" target="b1xzSJ63PG0eWYPtz2-o-25">
          <mxGeometry width="50" height="50" relative="1" as="geometry">
            <mxPoint x="174.75" y="246" as="sourcePoint" />
            <mxPoint x="224.75" y="196" as="targetPoint" />
          </mxGeometry>
        </mxCell>
        <mxCell id="b1xzSJ63PG0eWYPtz2-o-31" value="" style="endArrow=none;html=1;rounded=0;fontSize=12;startSize=8;endSize=8;curved=1;entryX=1;entryY=0.5;entryDx=0;entryDy=0;exitX=0;exitY=0.5;exitDx=0;exitDy=0;" edge="1" parent="b1xzSJ63PG0eWYPtz2-o-4" source="b1xzSJ63PG0eWYPtz2-o-6" target="b1xzSJ63PG0eWYPtz2-o-26">
          <mxGeometry width="50" height="50" relative="1" as="geometry">
            <mxPoint x="191.75" y="270" as="sourcePoint" />
            <mxPoint x="154.75" y="190" as="targetPoint" />
          </mxGeometry>
        </mxCell>
        <mxCell id="b1xzSJ63PG0eWYPtz2-o-32" value="" style="endArrow=none;html=1;rounded=0;fontSize=12;startSize=8;endSize=8;curved=1;entryX=1;entryY=0.5;entryDx=0;entryDy=0;exitX=0;exitY=0.5;exitDx=0;exitDy=0;" edge="1" parent="b1xzSJ63PG0eWYPtz2-o-4" source="b1xzSJ63PG0eWYPtz2-o-6" target="b1xzSJ63PG0eWYPtz2-o-27">
          <mxGeometry width="50" height="50" relative="1" as="geometry">
            <mxPoint x="191.75" y="270" as="sourcePoint" />
            <mxPoint x="154.75" y="227" as="targetPoint" />
          </mxGeometry>
        </mxCell>
        <mxCell id="b1xzSJ63PG0eWYPtz2-o-33" value="" style="endArrow=none;html=1;rounded=0;fontSize=12;startSize=8;endSize=8;curved=1;entryX=1;entryY=0.5;entryDx=0;entryDy=0;exitX=0;exitY=0.5;exitDx=0;exitDy=0;" edge="1" parent="b1xzSJ63PG0eWYPtz2-o-4" source="b1xzSJ63PG0eWYPtz2-o-6" target="b1xzSJ63PG0eWYPtz2-o-28">
          <mxGeometry width="50" height="50" relative="1" as="geometry">
            <mxPoint x="191.75" y="270" as="sourcePoint" />
            <mxPoint x="153.75" y="267" as="targetPoint" />
          </mxGeometry>
        </mxCell>
        <mxCell id="b1xzSJ63PG0eWYPtz2-o-34" value="" style="endArrow=none;html=1;rounded=0;fontSize=12;startSize=8;endSize=8;curved=1;entryX=1;entryY=0.5;entryDx=0;entryDy=0;exitX=0;exitY=0.5;exitDx=0;exitDy=0;" edge="1" parent="b1xzSJ63PG0eWYPtz2-o-4" source="b1xzSJ63PG0eWYPtz2-o-6" target="b1xzSJ63PG0eWYPtz2-o-29">
          <mxGeometry width="50" height="50" relative="1" as="geometry">
            <mxPoint x="191.75" y="270" as="sourcePoint" />
            <mxPoint x="148.75" y="303" as="targetPoint" />
          </mxGeometry>
        </mxCell>
        <mxCell id="b1xzSJ63PG0eWYPtz2-o-35" value="&lt;font style=&quot;font-size: 6px;&quot;&gt;&amp;lt;&amp;lt;include&amp;gt;&amp;gt;&lt;/font&gt;" style="text;html=1;align=center;verticalAlign=middle;whiteSpace=wrap;rounded=0;" vertex="1" parent="b1xzSJ63PG0eWYPtz2-o-4">
          <mxGeometry x="149.75" y="182" width="28" height="1" as="geometry" />
        </mxCell>
        <mxCell id="b1xzSJ63PG0eWYPtz2-o-36" value="&lt;font style=&quot;font-size: 6px;&quot;&gt;&amp;lt;&amp;lt;include&amp;gt;&amp;gt;&lt;/font&gt;" style="text;html=1;align=center;verticalAlign=middle;whiteSpace=wrap;rounded=0;" vertex="1" parent="b1xzSJ63PG0eWYPtz2-o-4">
          <mxGeometry x="130.75" y="211" width="28" height="1" as="geometry" />
        </mxCell>
        <mxCell id="b1xzSJ63PG0eWYPtz2-o-37" value="&lt;font style=&quot;font-size: 6px;&quot;&gt;&amp;lt;&amp;lt;include&amp;gt;&amp;gt;&lt;/font&gt;" style="text;html=1;align=center;verticalAlign=middle;whiteSpace=wrap;rounded=0;" vertex="1" parent="b1xzSJ63PG0eWYPtz2-o-4">
          <mxGeometry x="121.25" y="233" width="28" height="3" as="geometry" />
        </mxCell>
        <mxCell id="b1xzSJ63PG0eWYPtz2-o-39" value="&lt;font style=&quot;font-size: 6px;&quot;&gt;&amp;lt;&amp;lt;include&amp;gt;&amp;gt;&lt;/font&gt;" style="text;html=1;align=center;verticalAlign=middle;whiteSpace=wrap;rounded=0;" vertex="1" parent="b1xzSJ63PG0eWYPtz2-o-4">
          <mxGeometry x="116.75" y="267" width="28" height="6" as="geometry" />
        </mxCell>
        <mxCell id="b1xzSJ63PG0eWYPtz2-o-74" value="&lt;font style=&quot;font-size: 6px;&quot;&gt;&amp;lt;&amp;lt;include&amp;gt;&amp;gt;&lt;/font&gt;" style="text;html=1;align=center;verticalAlign=middle;whiteSpace=wrap;rounded=0;" vertex="1" parent="b1xzSJ63PG0eWYPtz2-o-4">
          <mxGeometry x="108.25" y="296" width="28" height="6" as="geometry" />
        </mxCell>
        <mxCell id="b1xzSJ63PG0eWYPtz2-o-75" value="&lt;font style=&quot;font-size: 6px;&quot;&gt;&amp;lt;&amp;lt;include&amp;gt;&amp;gt;&lt;/font&gt;" style="text;html=1;align=center;verticalAlign=middle;whiteSpace=wrap;rounded=0;" vertex="1" parent="b1xzSJ63PG0eWYPtz2-o-4">
          <mxGeometry x="146" y="19" width="28" height="1" as="geometry" />
        </mxCell>
        <mxCell id="b1xzSJ63PG0eWYPtz2-o-76" value="&lt;font style=&quot;font-size: 6px;&quot;&gt;&amp;lt;&amp;lt;include&amp;gt;&amp;gt;&lt;/font&gt;" style="text;html=1;align=center;verticalAlign=middle;whiteSpace=wrap;rounded=0;" vertex="1" parent="b1xzSJ63PG0eWYPtz2-o-4">
          <mxGeometry x="128" y="51" width="28" height="1" as="geometry" />
        </mxCell>
        <mxCell id="b1xzSJ63PG0eWYPtz2-o-78" value="&lt;font style=&quot;font-size: 6px;&quot;&gt;&amp;lt;&amp;lt;include&amp;gt;&amp;gt;&lt;/font&gt;" style="text;html=1;align=center;verticalAlign=middle;whiteSpace=wrap;rounded=0;" vertex="1" parent="b1xzSJ63PG0eWYPtz2-o-4">
          <mxGeometry x="122.5" y="82" width="28" height="1" as="geometry" />
        </mxCell>
        <mxCell id="b1xzSJ63PG0eWYPtz2-o-81" value="&lt;font style=&quot;font-size: 6px;&quot;&gt;&amp;lt;&amp;lt;include&amp;gt;&amp;gt;&lt;/font&gt;" style="text;html=1;align=center;verticalAlign=middle;whiteSpace=wrap;rounded=0;" vertex="1" parent="b1xzSJ63PG0eWYPtz2-o-4">
          <mxGeometry x="107" y="107" width="28" height="1" as="geometry" />
        </mxCell>
        <mxCell id="b1xzSJ63PG0eWYPtz2-o-83" value="&lt;font style=&quot;font-size: 6px;&quot;&gt;&amp;lt;&amp;lt;include&amp;gt;&amp;gt;&lt;/font&gt;" style="text;html=1;align=center;verticalAlign=middle;whiteSpace=wrap;rounded=0;" vertex="1" parent="b1xzSJ63PG0eWYPtz2-o-4">
          <mxGeometry x="107" y="132" width="28" height="1" as="geometry" />
        </mxCell>
        <mxCell id="b1xzSJ63PG0eWYPtz2-o-85" value="&lt;font style=&quot;font-size: 6px;&quot;&gt;Kelola Mata Kuliah&lt;/font&gt;" style="ellipse;whiteSpace=wrap;html=1;verticalAlign=middle;align=center;" vertex="1" parent="b1xzSJ63PG0eWYPtz2-o-4">
          <mxGeometry x="180" y="413" width="70.5" height="40" as="geometry" />
        </mxCell>
        <mxCell id="b1xzSJ63PG0eWYPtz2-o-86" value="&lt;span style=&quot;font-size: 6px;&quot;&gt;Melihat Mata Kuliah Keseluruhan&lt;/span&gt;" style="ellipse;whiteSpace=wrap;html=1;verticalAlign=middle;align=center;" vertex="1" parent="b1xzSJ63PG0eWYPtz2-o-4">
          <mxGeometry x="83" y="337" width="60" height="32" as="geometry" />
        </mxCell>
        <mxCell id="b1xzSJ63PG0eWYPtz2-o-87" value="&lt;span style=&quot;font-size: 6px;&quot;&gt;Melihat Mata Kuliah Satuan&lt;/span&gt;" style="ellipse;whiteSpace=wrap;html=1;verticalAlign=middle;align=center;" vertex="1" parent="b1xzSJ63PG0eWYPtz2-o-4">
          <mxGeometry x="66" y="371" width="60" height="35" as="geometry" />
        </mxCell>
        <mxCell id="b1xzSJ63PG0eWYPtz2-o-88" value="&lt;span style=&quot;font-size: 6px;&quot;&gt;Menambah&amp;nbsp;&lt;/span&gt;&lt;div&gt;&lt;span style=&quot;font-size: 6px;&quot;&gt;Mata Kuliah Baru&lt;/span&gt;&lt;/div&gt;" style="ellipse;whiteSpace=wrap;html=1;verticalAlign=middle;align=center;" vertex="1" parent="b1xzSJ63PG0eWYPtz2-o-4">
          <mxGeometry x="66" y="409" width="59" height="34" as="geometry" />
        </mxCell>
        <mxCell id="b1xzSJ63PG0eWYPtz2-o-89" value="&lt;span style=&quot;font-size: 6px;&quot;&gt;Edit Mahasiswa&lt;/span&gt;" style="ellipse;whiteSpace=wrap;html=1;verticalAlign=middle;align=center;" vertex="1" parent="b1xzSJ63PG0eWYPtz2-o-4">
          <mxGeometry x="71.25" y="446" width="49.5" height="26" as="geometry" />
        </mxCell>
        <mxCell id="b1xzSJ63PG0eWYPtz2-o-90" value="&lt;span style=&quot;font-size: 6px;&quot;&gt;Hapus Mahasiswa&lt;/span&gt;" style="ellipse;whiteSpace=wrap;html=1;verticalAlign=middle;align=center;" vertex="1" parent="b1xzSJ63PG0eWYPtz2-o-4">
          <mxGeometry x="68" y="477" width="58" height="23" as="geometry" />
        </mxCell>
        <mxCell id="b1xzSJ63PG0eWYPtz2-o-91" value="" style="endArrow=none;html=1;rounded=0;fontSize=12;startSize=8;endSize=8;curved=1;entryX=1;entryY=0.5;entryDx=0;entryDy=0;exitX=0;exitY=0.5;exitDx=0;exitDy=0;" edge="1" source="b1xzSJ63PG0eWYPtz2-o-85" target="b1xzSJ63PG0eWYPtz2-o-86" parent="b1xzSJ63PG0eWYPtz2-o-4">
          <mxGeometry width="50" height="50" relative="1" as="geometry">
            <mxPoint x="173" y="419" as="sourcePoint" />
            <mxPoint x="223" y="369" as="targetPoint" />
          </mxGeometry>
        </mxCell>
        <mxCell id="b1xzSJ63PG0eWYPtz2-o-92" value="" style="endArrow=none;html=1;rounded=0;fontSize=12;startSize=8;endSize=8;curved=1;entryX=1;entryY=0.5;entryDx=0;entryDy=0;exitX=0;exitY=0.5;exitDx=0;exitDy=0;" edge="1" source="b1xzSJ63PG0eWYPtz2-o-85" target="b1xzSJ63PG0eWYPtz2-o-87" parent="b1xzSJ63PG0eWYPtz2-o-4">
          <mxGeometry width="50" height="50" relative="1" as="geometry">
            <mxPoint x="190" y="443" as="sourcePoint" />
            <mxPoint x="153" y="363" as="targetPoint" />
          </mxGeometry>
        </mxCell>
        <mxCell id="b1xzSJ63PG0eWYPtz2-o-93" value="" style="endArrow=none;html=1;rounded=0;fontSize=12;startSize=8;endSize=8;curved=1;entryX=1;entryY=0.5;entryDx=0;entryDy=0;exitX=0;exitY=0.5;exitDx=0;exitDy=0;" edge="1" source="b1xzSJ63PG0eWYPtz2-o-85" target="b1xzSJ63PG0eWYPtz2-o-88" parent="b1xzSJ63PG0eWYPtz2-o-4">
          <mxGeometry width="50" height="50" relative="1" as="geometry">
            <mxPoint x="190" y="443" as="sourcePoint" />
            <mxPoint x="153" y="400" as="targetPoint" />
          </mxGeometry>
        </mxCell>
        <mxCell id="b1xzSJ63PG0eWYPtz2-o-94" value="" style="endArrow=none;html=1;rounded=0;fontSize=12;startSize=8;endSize=8;curved=1;entryX=1;entryY=0.5;entryDx=0;entryDy=0;exitX=0;exitY=0.5;exitDx=0;exitDy=0;" edge="1" source="b1xzSJ63PG0eWYPtz2-o-85" target="b1xzSJ63PG0eWYPtz2-o-89" parent="b1xzSJ63PG0eWYPtz2-o-4">
          <mxGeometry width="50" height="50" relative="1" as="geometry">
            <mxPoint x="190" y="443" as="sourcePoint" />
            <mxPoint x="152" y="440" as="targetPoint" />
          </mxGeometry>
        </mxCell>
        <mxCell id="b1xzSJ63PG0eWYPtz2-o-95" value="" style="endArrow=none;html=1;rounded=0;fontSize=12;startSize=8;endSize=8;curved=1;entryX=1;entryY=0.5;entryDx=0;entryDy=0;exitX=0;exitY=0.5;exitDx=0;exitDy=0;" edge="1" source="b1xzSJ63PG0eWYPtz2-o-85" target="b1xzSJ63PG0eWYPtz2-o-90" parent="b1xzSJ63PG0eWYPtz2-o-4">
          <mxGeometry width="50" height="50" relative="1" as="geometry">
            <mxPoint x="190" y="443" as="sourcePoint" />
            <mxPoint x="147" y="476" as="targetPoint" />
          </mxGeometry>
        </mxCell>
        <mxCell id="b1xzSJ63PG0eWYPtz2-o-96" value="&lt;font style=&quot;font-size: 6px;&quot;&gt;&amp;lt;&amp;lt;include&amp;gt;&amp;gt;&lt;/font&gt;" style="text;html=1;align=center;verticalAlign=middle;whiteSpace=wrap;rounded=0;" vertex="1" parent="b1xzSJ63PG0eWYPtz2-o-4">
          <mxGeometry x="148" y="355" width="28" height="1" as="geometry" />
        </mxCell>
        <mxCell id="b1xzSJ63PG0eWYPtz2-o-97" value="&lt;font style=&quot;font-size: 6px;&quot;&gt;&amp;lt;&amp;lt;include&amp;gt;&amp;gt;&lt;/font&gt;" style="text;html=1;align=center;verticalAlign=middle;whiteSpace=wrap;rounded=0;" vertex="1" parent="b1xzSJ63PG0eWYPtz2-o-4">
          <mxGeometry x="129" y="384" width="28" height="1" as="geometry" />
        </mxCell>
        <mxCell id="b1xzSJ63PG0eWYPtz2-o-98" value="&lt;font style=&quot;font-size: 6px;&quot;&gt;&amp;lt;&amp;lt;include&amp;gt;&amp;gt;&lt;/font&gt;" style="text;html=1;align=center;verticalAlign=middle;whiteSpace=wrap;rounded=0;" vertex="1" parent="b1xzSJ63PG0eWYPtz2-o-4">
          <mxGeometry x="118" y="409" width="28" height="3" as="geometry" />
        </mxCell>
        <mxCell id="b1xzSJ63PG0eWYPtz2-o-99" value="&lt;font style=&quot;font-size: 6px;&quot;&gt;&amp;lt;&amp;lt;include&amp;gt;&amp;gt;&lt;/font&gt;" style="text;html=1;align=center;verticalAlign=middle;whiteSpace=wrap;rounded=0;" vertex="1" parent="b1xzSJ63PG0eWYPtz2-o-4">
          <mxGeometry x="115" y="440" width="28" height="6" as="geometry" />
        </mxCell>
        <mxCell id="b1xzSJ63PG0eWYPtz2-o-100" value="&lt;font style=&quot;font-size: 6px;&quot;&gt;&amp;lt;&amp;lt;include&amp;gt;&amp;gt;&lt;/font&gt;" style="text;html=1;align=center;verticalAlign=middle;whiteSpace=wrap;rounded=0;" vertex="1" parent="b1xzSJ63PG0eWYPtz2-o-4">
          <mxGeometry x="106.5" y="469" width="28" height="6" as="geometry" />
        </mxCell>
      </root>
    </mxGraphModel>
  </diagram>
</mxfile>
